<svg width="76.000854" height="70.153748" viewBox="0 0 76.0009 70.1537" fill="none" xmlns="http://www.w3.org/2000/svg" xmlns:xlink="http://www.w3.org/1999/xlink">
	<desc>
			Created with Pixso.
	</desc>
	<defs>
		<linearGradient x1="28.883499" y1="34.769321" x2="73.633118" y2="34.769321" id="paint_linear_36_344_0" gradientUnits="userSpaceOnUse">
			<stop stop-color="#1D5BF8"/>
			<stop offset="1.000000" stop-color="#609FFF"/>
		</linearGradient>
		<linearGradient x1="60.707840" y1="30.883993" x2="60.707840" y2="22.670380" id="paint_linear_36_345_0" gradientUnits="userSpaceOnUse">
			<stop stop-color="#4F6AFF"/>
			<stop offset="1.000000" stop-color="#657EFF" stop-opacity="0.000000"/>
		</linearGradient>
		<linearGradient x1="13.280550" y1="34.746254" x2="43.719727" y2="34.746254" id="paint_linear_36_350_0" gradientUnits="userSpaceOnUse">
			<stop stop-color="#627AFF"/>
			<stop offset="1.000000" stop-color="#273DD1"/>
		</linearGradient>
		<linearGradient x1="-1.744218" y1="28.734020" x2="5.483821" y2="29.911465" id="paint_linear_36_355_0" gradientUnits="userSpaceOnUse">
			<stop stop-color="#E9ECF6"/>
			<stop offset="1.000000" stop-color="#FFFFFF"/>
		</linearGradient>
		<linearGradient x1="1.929883" y1="32.576065" x2="6.542513" y2="33.753502" id="paint_linear_36_356_0" gradientUnits="userSpaceOnUse">
			<stop stop-color="#E9ECF6"/>
			<stop offset="1.000000" stop-color="#FFFFFF"/>
		</linearGradient>
		<linearGradient x1="3.910367" y1="36.230358" x2="7.001306" y2="37.407795" id="paint_linear_36_357_0" gradientUnits="userSpaceOnUse">
			<stop stop-color="#E9ECF6"/>
			<stop offset="1.000000" stop-color="#FFFFFF"/>
		</linearGradient>
		<linearGradient x1="42.941990" y1="33.699528" x2="30.098211" y2="34.295784" id="paint_linear_36_361_0" gradientUnits="userSpaceOnUse">
			<stop stop-color="#0C1E82"/>
			<stop offset="1.000000" stop-color="#001DB5" stop-opacity="0.000000"/>
		</linearGradient>
		<linearGradient x1="61.027401" y1="13.505790" x2="71.285378" y2="13.505790" id="paint_linear_36_362_0" gradientUnits="userSpaceOnUse">
			<stop stop-color="#64BEFF"/>
			<stop offset="1.000000" stop-color="#0C8AFF"/>
		</linearGradient>
	</defs>
	<circle id="Ellipse 41" cx="40.434326" cy="39.461639" r="30.692106" fill="#6C799F" fill-opacity="1.000000"/>
	<mask id="mask36_321" mask-type="alpha" maskUnits="userSpaceOnUse" x="9.746094" y="8.769531" width="61.384155" height="61.384216">
		<circle id="Ellipse 40" cx="40.438232" cy="39.461639" r="30.692106" fill="#6C799F" fill-opacity="1.000000"/>
	</mask>
	<g mask="url(#mask36_321)">
		<path id="Vector" d="M49.69 51.63L49.69 69.02C49.56 69.08 49.09 69.17 48.96 69.23C47.51 69.6 46.34 69.96 44.82 70.15L44.82 51.63L49.69 51.63Z" fill="#FFFFFF" fill-opacity="1.000000" fill-rule="nonzero"/>
		<path id="Vector" d="M54.07 51.63L54.07 66.81C53.75 67 53.43 67.12 53.11 67.25C52.98 67.31 52.86 67.37 52.73 67.44L52.66 67.44C52.54 67.5 52.34 67.56 52.21 67.62C51.25 68.06 50.23 68.37 49.2 68.68L49.2 51.63L54.07 51.63Z" fill="#D5DAE8" fill-opacity="1.000000" fill-rule="nonzero"/>
		<g opacity="0.100000">
			<path id="Vector" d="M53.92 58.94L53.92 66.44C53.67 66.56 53.42 66.69 53.17 66.81C53.05 66.87 52.93 66.93 52.8 66.99L52.74 66.99C52.62 67.06 52.43 67.12 52.3 67.18C51.37 67.61 50.38 67.92 49.39 68.23C49.33 68.23 49.26 68.3 49.2 68.3L49.2 66.69C49.26 66.5 49.33 66.31 49.39 66.13C50.32 63.71 51.5 61.79 52.86 60.18C53.17 59.75 53.55 59.31 53.92 58.94Z" fill="#062C78" fill-opacity="1.000000" fill-rule="nonzero"/>
		</g>
		<g opacity="0.100000">
			<path id="Vector" d="M44.94 51.59L54.13 51.59L54.13 56.92L44.94 56.92L44.94 51.59Z" fill="#062C78" fill-opacity="1.000000" fill-rule="evenodd"/>
		</g>
		<path id="Vector" d="M36.58 64.49C35.71 65.79 34.65 67.9 34.03 69.69C33.97 69.82 33.91 70 33.91 70.13C33.47 70.06 33.04 69.94 32.6 69.82C32.23 68.95 31.98 68.02 31.98 68.02C32.23 67.71 32.42 67.46 32.67 67.21C33.84 65.73 35.09 64.74 36.58 64.49Z" fill="#B6BED6" fill-opacity="1.000000" fill-rule="nonzero"/>
		<path id="Vector" d="M26.31 67.44C24.75 64.83 23.85 61.58 22.36 57.18C22.36 57.12 22.36 57.12 22.3 57.06C22.3 57.06 22.42 57.06 22.73 57.18C22.92 57.3 23.23 57.43 23.6 57.68C24.35 58.17 25.53 59.04 27.26 60.46C29.44 62.26 31.3 64.92 32.6 67.15C33.16 68.14 33.73 69.43 34.1 70.11C33.13 69.87 29.96 69.38 26.31 67.44Z" fill="#D5DAE8" fill-opacity="1.000000" fill-rule="evenodd"/>
		<path id="Vector" d="M31.73 69.51C31.61 69.44 31.48 69.44 31.36 69.38C31.24 69.32 31.11 69.32 30.93 69.26C28.07 63.5 24.84 59.84 22.92 57.74C22.73 57.49 22.55 57.3 22.36 57.12C22.36 57.06 22.36 57.06 22.3 56.99C22.3 56.99 22.42 56.99 22.73 57.12C22.92 57.24 23.23 57.36 23.6 57.61C25.59 59.84 28.88 63.62 31.73 69.51Z" fill="#EAEEF9" fill-opacity="1.000000" fill-rule="nonzero"/>
		<path id="Vector" d="M60.78 55.49C60.78 55.49 60.71 55.61 60.59 55.86C59.85 57.22 57.2 62.23 56.02 66.25C56.02 66.25 52.61 68.69 48.71 69.42C48.96 68.61 49.17 67.5 49.48 66.82C50.41 64.41 51.59 62.49 52.96 60.88C53.39 60.38 53.83 59.89 54.26 59.45C56.06 57.66 57.98 56.48 59.78 55.86C60.03 55.74 60.4 55.61 60.78 55.49Z" fill="#D5DAE8" fill-opacity="1.000000" fill-rule="evenodd"/>
		<path id="Vector" d="M60.78 55.49C60.78 55.49 60.72 55.61 60.6 55.86C58.24 57.9 56.07 61.12 54.14 65.27C53.83 66.02 53.65 66.91 53.34 67.71C53.22 67.78 52.49 68.14 52.37 68.2C52.37 67.96 52.47 67.69 52.47 67.69C53.03 66.33 53.58 65.03 54.14 63.85C55.82 60.44 57.45 57.88 59.43 56.02C59.92 55.78 60.41 55.61 60.78 55.49Z" fill="#EAEEF9" fill-opacity="1.000000" fill-rule="evenodd"/>
	</g>
	<path id="Vector" d="M37.75 25.02C34.77 22.6 33.22 18.58 33.78 14.8C34.4 10.53 37.44 9.72 38.99 10.4C40.11 10.9 40.79 12.38 40.17 13.5C39.12 15.48 35.08 14.68 34.28 11.27C33.97 10.03 34.28 8.67 35.02 7.61C36.26 5.94 38.56 5.32 40.61 5.01C41.1 5.01 41.6 4.95 42.03 4.89C43.15 4.77 44.52 4.58 45.94 4.39" stroke="#D5DAE8" stroke-opacity="1.000000" stroke-width="1.000000" stroke-linejoin="round" stroke-linecap="round"/>
	<path id="Vector" d="M49.05 5.14L47.12 6L47.43 2.72L49.05 5.14Z" fill="#D5DAE8" fill-opacity="1.000000" fill-rule="nonzero"/>
	<path id="Vector" d="M61.39 1.11L60.53 1.61L50.47 7.24L47.87 3.4L47.43 2.72L45.57 0L59.78 0.99L61.39 1.11Z" fill="#EAEEF9" fill-opacity="1.000000" fill-rule="nonzero"/>
	<path id="Vector" d="M61.4 1.11L60.53 1.61L47.87 3.4L47.43 2.72L59.78 0.99L61.4 1.11Z" fill="#D5DAE8" fill-opacity="1.000000" fill-rule="nonzero"/>
	<path id="Vector" d="M11.67 19.02C11.94 19.84 11.49 20.71 10.68 20.98C9.86 21.24 8.99 20.79 8.72 19.98C8.46 19.17 8.9 18.29 9.72 18.03C10.53 17.77 11.41 18.21 11.67 19.02Z" fill="#EAEEF9" fill-opacity="1.000000" fill-rule="evenodd"/>
	<path id="Vector" d="M14.74 14.6C14.92 15.15 14.61 15.74 14.06 15.92C13.51 16.1 12.91 15.8 12.73 15.25C12.55 14.7 12.85 14.1 13.41 13.92C13.96 13.74 14.56 14.04 14.74 14.6Z" fill="#EAEEF9" fill-opacity="1.000000" fill-rule="evenodd"/>
	<path id="Vector" d="M26.96 5.32C27.84 6.28 27.77 7.77 26.81 8.65C25.85 9.53 24.36 9.46 23.48 8.5C22.6 7.54 22.67 6.05 23.63 5.17C24.59 4.3 26.08 4.36 26.96 5.32Z" fill="#EAEEF9" fill-opacity="1.000000" fill-rule="evenodd"/>
	<path id="Vector" d="M75.33 19.33C75.7 19.73 75.67 20.36 75.26 20.73C74.86 21.09 74.23 21.07 73.86 20.66C73.49 20.26 73.52 19.63 73.92 19.26C74.33 18.89 74.96 18.92 75.33 19.33Z" fill="#EAEEF9" fill-opacity="1.000000" fill-rule="evenodd"/>
	<path id="Vector" d="M73.62 32.76L73.62 51.84L59.43 51.88L58.72 51.9L28.87 51.9L28.87 17.65L57.23 17.65C57.61 17.59 57.98 17.59 58.41 17.59C58.91 17.59 59.34 17.59 59.84 17.65C60.46 17.71 61.02 17.77 61.58 17.9C64.49 18.52 67.1 20 69.15 21.98C71.94 24.77 73.62 28.61 73.62 32.76Z" fill="url(#paint_linear_36_344_0)" fill-opacity="1.000000" fill-rule="nonzero"/>
	<path id="Vector" d="M61.58 17.96L61.58 32.14C61.58 32.64 61.2 33.01 60.71 33.01C60.21 33.01 59.84 32.64 59.84 32.14L59.84 17.65C60.4 17.71 61.02 17.83 61.58 17.96Z" fill="url(#paint_linear_36_345_0)" fill-opacity="1.000000" fill-rule="nonzero"/>
	<path id="Vector" d="M64.43 33.82C64.43 35.7 62.91 37.22 61.02 37.22C59.14 37.22 57.61 35.7 57.61 33.82C57.61 31.93 59.14 30.41 61.02 30.41C62.91 30.41 64.43 31.93 64.43 33.82Z" fill="#5C71FF" fill-opacity="1.000000" fill-rule="evenodd"/>
	<path id="Vector" d="M65.12 33.38C65.12 35.26 63.54 36.79 61.58 36.79C59.63 36.79 58.05 35.26 58.05 33.38C58.05 31.5 59.63 29.97 61.58 29.97C63.54 29.97 65.12 31.5 65.12 33.38Z" fill="#D5DAE8" fill-opacity="1.000000" fill-rule="evenodd"/>
	<path id="Vector" d="M65.18 33.38C65.18 35.26 63.65 36.79 61.76 36.79C59.88 36.79 58.35 35.26 58.35 33.38C58.35 31.5 59.88 29.97 61.76 29.97C63.65 29.97 65.18 31.5 65.18 33.38Z" fill="#EAEEF9" fill-opacity="1.000000" fill-rule="evenodd"/>
	<path id="Vector" d="M63.07 33.38C63.07 34.1 62.49 34.68 61.77 34.68C61.05 34.68 60.46 34.1 60.46 33.38C60.46 32.66 61.05 32.08 61.77 32.08C62.49 32.08 63.07 32.66 63.07 33.38Z" fill="#D5DAE8" fill-opacity="1.000000" fill-rule="evenodd"/>
	<path id="Vector" d="M43.7 31.27L43.7 51.9L13.3 51.9L13.3 31.27C13.3 24.77 17.89 19.32 23.97 17.96C24.96 17.71 25.96 17.65 27.01 17.65L30.11 17.65C36.94 17.65 42.59 22.6 43.64 29.17C43.64 29.79 43.7 30.53 43.7 31.27Z" fill="url(#paint_linear_36_350_0)" fill-opacity="1.000000" fill-rule="nonzero"/>
	<path id="Vector" d="M62.76 16.84L62.76 33.26C62.76 33.75 62.38 34.12 61.89 34.12C61.39 34.12 61.02 33.75 61.02 33.26L61.02 16.84L62.76 16.84Z" fill="#FFFFFF" fill-opacity="1.000000" fill-rule="nonzero"/>
	<path id="Vector" d="M37.29 43.17C37.29 44.47 36.24 45.52 34.93 45.52C10.61 45.52 12.16 45.65 11.35 45.15C10.67 44.72 10.23 43.97 10.23 43.17C11.66 27 11.41 27.19 12.41 26.26C13.34 25.45 12.03 25.7 36.24 25.7C36.98 25.7 37.66 26.07 38.1 26.57C38.9 27.62 38.72 27.25 37.29 43.17Z" fill="#FFFFFF" fill-opacity="1.000000" fill-rule="nonzero"/>
	<path id="Vector" d="M38.35 26.94C26.06 37.35 26.37 37.53 24.57 37.53C22.65 37.53 22.84 37.28 11.91 26.94C12.84 25.21 12.29 25.7 36.3 25.7C37.17 25.7 37.98 26.2 38.35 26.94Z" fill="#EAEEF9" fill-opacity="1.000000" fill-rule="nonzero"/>
	<path id="Vector" d="M8.75 30.35L0.68 30.35C0.31 30.35 0 30.04 0 29.66C0 29.29 0.31 28.98 0.68 28.98L8.75 28.98C9.12 28.98 9.43 29.29 9.43 29.66C9.43 30.04 9.12 30.35 8.75 30.35Z" fill="url(#paint_linear_36_355_0)" fill-opacity="1.000000" fill-rule="nonzero"/>
	<path id="Vector" d="M8.37 34.19L3.72 34.19C3.35 34.19 3.04 33.88 3.04 33.51C3.04 33.13 3.35 32.83 3.72 32.83L8.37 32.83C8.75 32.83 9.06 33.13 9.06 33.51C9.06 33.88 8.75 34.19 8.37 34.19Z" fill="url(#paint_linear_36_356_0)" fill-opacity="1.000000" fill-rule="nonzero"/>
	<path id="Vector" d="M7.94 37.84L5.33 37.84C4.96 37.84 4.65 37.53 4.65 37.16C4.65 36.79 4.96 36.48 5.33 36.48L8 36.48C8.37 36.48 8.68 36.79 8.68 37.16C8.68 37.53 8.37 37.84 7.94 37.84Z" fill="url(#paint_linear_36_357_0)" fill-opacity="1.000000" fill-rule="nonzero"/>
	<path id="Vector" d="M33.75 37.66L30.96 37.66C30.77 37.66 30.65 37.78 30.65 37.96L30.59 38.34L30.46 39.33L30.4 40.01L30.28 40.75C30.28 40.81 30.28 40.88 30.28 40.94C30.34 41.06 30.46 41.19 30.59 41.19L33.38 41.19C33.57 41.19 33.69 41.06 33.69 40.88L34.06 38.09C34.12 37.84 34 37.66 33.75 37.66ZM33.07 40.19C33.07 40.26 33.01 40.38 32.88 40.38L31.52 40.38L31.33 40.38C31.21 40.38 31.15 40.26 31.15 40.19L31.21 39.7L31.27 39.02L31.33 38.71C31.33 38.65 31.39 38.52 31.52 38.52L33.07 38.52C33.19 38.52 33.25 38.65 33.25 38.71L33.07 40.19Z" fill="#2D76F9" fill-opacity="1.000000" fill-rule="nonzero"/>
	<path id="Vector" d="M31.52 38.46C31.4 38.46 31.34 38.52 31.34 38.65L31.27 38.96C30.96 39.14 30.72 39.27 30.47 39.33C30.28 39.39 30.09 39.39 29.91 39.39C29.35 39.39 28.92 39.2 28.54 39.02C27.98 38.77 27.86 38.77 27.67 38.96C27.49 39.14 27.24 39.14 27.05 39.02C26.87 38.83 26.87 38.58 26.99 38.4C27.61 37.66 28.36 37.96 28.92 38.21C29.47 38.46 29.91 38.71 30.59 38.34C30.65 38.27 30.78 38.27 30.84 38.21C31.03 38.09 31.34 38.15 31.46 38.34C31.52 38.34 31.52 38.4 31.52 38.46Z" fill="#2D76F9" fill-opacity="1.000000" fill-rule="nonzero"/>
	<path id="Vector" d="M31.52 40.32L31.46 40.38C31.03 40.69 30.65 40.82 30.34 40.88C30.22 40.88 30.1 40.88 30.03 40.88C29.47 40.88 29.04 40.69 28.67 40.51C28.11 40.26 27.99 40.26 27.8 40.44C27.61 40.63 27.36 40.63 27.18 40.51C26.99 40.32 26.99 40.07 27.12 39.89C27.74 39.14 28.48 39.45 28.98 39.7C29.41 39.89 29.85 40.07 30.34 39.95C30.53 39.89 30.65 39.82 30.9 39.7C30.96 39.64 31.09 39.64 31.21 39.64L31.15 40.13C31.15 40.26 31.21 40.32 31.34 40.32L31.52 40.32Z" fill="#2D76F9" fill-opacity="1.000000" fill-rule="nonzero"/>
	<g opacity="0.500000">
		<path id="Vector" d="M43.71 34.13L43.52 29.11C42.47 22.6 36.82 17.59 29.99 17.59L26.89 17.59C25.83 17.59 24.84 17.71 23.85 17.9L23.48 18.21L31.17 49.8L43.64 50.48L43.64 34.13L43.71 34.13Z" fill="url(#paint_linear_36_361_0)" fill-opacity="1.000000" fill-rule="nonzero"/>
	</g>
	<path id="Vector" d="M71.13 16.29C71.38 16.47 71.26 16.9 70.89 16.9L62.82 16.9L60.96 16.9L60.96 10.15L70.89 10.15C71.2 10.15 71.38 10.52 71.13 10.77L68.53 12.94C68.15 13.25 68.15 13.81 68.53 14.12L71.13 16.29Z" fill="url(#paint_linear_36_362_0)" fill-opacity="1.000000" fill-rule="nonzero"/>
	<path id="Vector" d="M43.71 29.11C42.66 22.6 36.89 17.59 30.06 17.59L26.96 17.59C25.9 17.59 24.91 17.71 23.92 17.9C19.57 18.89 16.03 21.92 14.3 25.89C14.48 25.76 14.79 25.7 15.41 25.64C17.09 22.23 20.25 19.63 24.1 18.76C24.97 18.58 25.96 18.45 26.89 18.45L30 18.45C36.33 18.45 41.6 22.98 42.59 29.17C42.72 29.79 42.78 30.47 42.78 31.15L42.78 50.85L14.23 50.85L14.23 45.4C13.74 45.4 13.49 45.34 13.3 45.27L13.3 51.78L43.9 51.78L43.9 31.28C43.9 30.53 43.84 29.79 43.71 29.11Z" fill="#96A7FF" fill-opacity="1.000000" fill-rule="nonzero"/>
	<path id="Vector" d="M43.9 49.74L43.9 51.9L2.32 51.9C1.7 51.9 1.2 51.41 1.2 50.85C1.2 50.23 1.7 49.74 2.32 49.74L43.9 49.74Z" fill="#7894FF" fill-opacity="1.000000" fill-rule="nonzero"/>
</svg>
